<svg width="143" height="18" viewBox="0 0 143 18" fill="none" xmlns="http://www.w3.org/2000/svg">
<path fill-rule="evenodd" clip-rule="evenodd" d="M57.1776 0.814427C54.759 1.79898 53.2686 3.85302 52.9104 6.69514C52.2703 11.7736 55.0026 15.4541 59.6465 15.7692C62.3521 15.9528 65.0714 15.0025 66.619 13.3325C67.0721 12.8436 67.0927 12.8405 69.8264 12.8405H72.5779L72.5681 14.0975L72.5583 15.3545L74.4863 15.4075L76.4143 15.4606V8.09832V0.736029H73.6982H70.9821L68.8579 3.94836C64.4719 10.5814 64.1333 11.0421 63.1801 11.6745C61.8465 12.5593 61.0864 12.739 59.7983 12.4743C58.554 12.2185 57.7573 11.6272 57.1866 10.5358C56.6074 9.42831 56.592 6.77186 57.1576 5.56104C57.6958 4.40926 58.6637 3.81707 59.9776 3.83588C61.2158 3.85357 61.9601 4.35376 62.4294 5.48339L62.7774 6.32139L64.7006 6.32195L66.6239 6.32269L66.5077 5.71747C66.0564 3.36753 64.5684 1.46546 62.6291 0.759683C61.0595 0.18854 58.6556 0.212558 57.1776 0.814427ZM119.823 0.555398C116.644 1.08576 114.271 3.58578 113.862 6.8348C113.374 10.719 114.875 13.7803 117.983 15.2409C118.927 15.6843 119.224 15.7269 121.369 15.7269C123.516 15.7269 123.812 15.6843 124.777 15.2362C127.533 13.957 128.947 11.5641 128.945 8.18491C128.944 6.24522 128.538 4.80386 127.625 3.48895C126.756 2.23828 126.419 1.95262 125.016 1.27794C123.328 0.466008 121.709 0.240869 119.823 0.555398ZM28.0737 8.19795V15.6599L32.1648 15.6003C36.2412 15.5409 36.2598 15.5388 37.3645 15.0017C39.9158 13.7615 41.2359 11.4371 41.2359 8.18491C41.2359 5.18264 40.1244 3.01278 37.936 1.74293C36.6656 1.00586 34.9317 0.742919 31.3184 0.739195L28.0737 0.736029V8.19795ZM42.369 8.18491V15.6338H47.4476H52.5262V14.0509V12.468H49.4226H46.319V11.0714V9.67469H49.1404H51.9619V8.18491V6.69514H49.1718C47.6372 6.69514 46.3465 6.6605 46.3034 6.61841C46.2603 6.57614 46.253 5.94764 46.2874 5.22175L46.3498 3.90181H49.438H52.5262V2.31891V0.736029H47.4476H42.369V8.18491ZM77.3548 2.31631V3.90181H79.2357H81.1167V9.7678V15.6338H83.0917H85.0667V9.77432V3.91484L86.9947 3.86177L88.9226 3.8087V2.31891V0.829139L83.1387 0.779977L77.3548 0.730634V2.31631ZM89.9572 8.18491V15.6338H91.9322H93.9072V12.6542V9.67469H96.5405H99.1738V12.6542V15.6338H101.149H103.124V8.18491V0.736029H101.149H99.1738V3.52936V6.32269H96.5405H93.9072V3.52936V0.736029H91.9322H89.9572V8.18491ZM104.252 8.18491V15.6338H109.143H114.033V14.0509V12.468H111.118H108.202V6.60203V0.736029H106.227H104.252V8.18491ZM130.022 8.18491V15.6338H131.899H133.776L133.827 11.3972L133.877 7.16069L135.655 10.0471C136.633 11.6347 137.803 13.541 138.257 14.2837L139.082 15.6338H141.041H143V8.18491V0.736029H141.119H139.238V4.7398C139.238 6.94188 139.174 8.74358 139.095 8.74358C139.017 8.74358 137.861 6.94188 136.526 4.7398L134.099 0.736029H132.06H130.022V8.18491ZM122.37 3.91521C123.527 4.23347 124.466 5.21262 124.824 6.4739C125.209 7.83221 125.211 8.59255 124.832 9.87357C124.306 11.654 123.043 12.5511 121.121 12.5086C119.137 12.4647 117.898 11.1004 117.673 8.7108C117.357 5.36495 119.539 3.13699 122.37 3.91521ZM34.8429 4.02248C35.7292 4.1979 36.8294 5.31653 37.1016 6.31859C37.6327 8.27448 37.1836 10.7501 36.14 11.6196C35.8323 11.8758 35.2671 12.1775 34.8837 12.2898C34.1362 12.5088 31.8987 12.4669 31.9767 12.2352C32.0027 12.1583 32.0237 10.252 32.0237 7.99868V3.90181H33.1288C33.7365 3.90181 34.5079 3.956 34.8429 4.02248ZM72.4643 7.16069V9.86091H70.7558C69.8161 9.86091 69.0754 9.79256 69.11 9.70914C69.2078 9.47208 72.3644 4.46438 72.4173 4.46233C72.443 4.46122 72.4643 5.67557 72.4643 7.16069Z" fill="#DD4543"/>
<path d="M9.87448 1.33602C11.2986 0.716596 13.0892 0.195022 14.2506 0.0613143C14.5019 0.0323691 15.0378 0.0050423 15.4416 0.000622712C18.2572 -0.0303766 20.2235 1.09712 20.9097 3.13604C21.0398 3.52285 21.0562 3.68712 21.0552 4.59886C21.0542 5.52648 21.0373 5.68571 20.8811 6.24307C20.4449 7.79895 19.553 9.42711 18.3546 10.8548C17.7835 11.5351 16.516 12.8052 15.9551 13.2591L15.4932 13.6327V11.8285V10.0242L15.8861 9.59791C17.6099 7.72731 18.5109 6.03797 18.6707 4.37726C18.7797 3.24354 18.2115 2.2032 17.2299 1.73926C16.495 1.39192 16.1449 1.33079 14.8961 1.3316C13.8193 1.33235 13.7251 1.34243 12.9474 1.54044C10.204 2.23899 7.49713 3.7546 5.12142 5.92231C3.75894 7.16546 2.79072 8.39404 2.16633 9.67205C1.74555 10.5334 1.54446 11.2291 1.49417 11.9977C1.44401 12.7646 1.57281 13.184 1.97769 13.5722C2.55983 14.1302 3.32263 14.1296 4.46139 13.57C5.44376 13.0873 6.51219 12.1272 8.17576 10.2323C9.30943 8.94089 11.896 5.47357 12.9701 3.8052C13.0858 3.62543 13.1918 3.4784 13.2054 3.4784C13.2191 3.4784 13.2303 6.10706 13.2303 9.31991V15.1614L12.6488 15.4798C10.2445 16.7966 7.64077 17.5471 5.48072 17.546C3.55905 17.5451 2.20147 17.0827 1.18648 16.0834C0.647583 15.5528 0.357046 15.0625 0.116042 14.2768C-0.0359519 13.7816 -0.0393464 12.2428 0.110071 11.6017C0.649594 9.28723 2.1691 6.97156 4.57467 4.79812C6.05388 3.4616 8.17884 2.07347 9.87448 1.33602Z" fill="#DD4543"/>
</svg>
