<svg width="117" height="26" viewBox="0 0 117 26" fill="none" xmlns="http://www.w3.org/2000/svg">
<path fill-rule="evenodd" clip-rule="evenodd" d="M2.02934 2.04802C4.15223 4.18961 5.27735 4.90985 6.79165 5.09657L7.69779 5.2083L5.99019 3.46422L4.28281 1.71992H9.65135C14.8651 1.71992 15.0402 1.73388 15.7306 2.20337C16.5267 2.74484 16.7874 3.22399 16.2857 3.22399C15.7843 3.22399 14.4149 4.52265 14.0879 5.30864C13.7901 6.02415 13.7004 7.65887 13.9265 8.2504C14.0423 8.55315 14.1161 8.55293 14.7018 8.24911C16.513 7.30885 18.5017 9.31658 17.5634 11.138C17.1366 11.9665 16.6314 12.2484 15.5741 12.2484C14.8283 12.2484 14.5868 12.0813 12.9548 10.4345C11.418 8.88383 11.1969 8.57227 11.4317 8.28822C11.5829 8.10536 11.792 8.00889 11.8963 8.07357C12.0007 8.13824 12.0861 7.84709 12.0861 7.42659C12.0861 7.0061 11.9859 6.66188 11.8635 6.66188C11.3836 6.66188 9.97138 7.53597 9.45377 8.15328C8.34727 9.47322 7.47559 12.7809 8.09745 13.2992C8.37852 13.5331 8.47485 13.4569 8.75784 12.7772C8.94001 12.3393 9.08922 11.9264 9.08922 11.8595C9.08922 11.6094 10.0602 10.3174 10.249 10.3161C10.3571 10.3153 11.8188 11.7407 13.497 13.4839L16.5483 16.6532L11.9108 21.3266L7.2733 26H8.45087H9.62866L13.6886 21.9205L17.7488 17.841L18.6308 18.7097C19.4628 19.5295 19.5759 19.575 20.6286 19.5127L21.7445 19.4465L19.1683 16.8681C17.7514 15.45 16.5896 14.2289 16.5869 14.1545C16.5839 14.0804 16.8591 13.904 17.1987 13.7631C18.4537 13.2411 19.5784 11.5151 19.5784 10.1109C19.5784 8.39393 18.1217 6.63567 16.4364 6.31831C15.9089 6.21882 15.7336 6.09033 15.8194 5.86601C15.8854 5.69347 15.9393 5.51449 15.9393 5.46807C15.9393 5.42166 16.2236 5.23623 16.5708 5.05596C16.9889 4.83894 17.806 4.72807 18.9865 4.72807H20.7703L21.9404 3.52975C22.5839 2.87075 23.3706 2.19392 23.6885 2.02568C24.1564 1.77815 25.6866 1.71992 31.7123 1.71992H39.1581L36.807 4.09851C35.5139 5.40684 34.2042 6.61096 33.8968 6.77469C33.4713 7.00094 32.1254 7.07958 28.2669 7.10322C25.4778 7.12041 23.225 7.21452 23.2603 7.31229C23.2957 7.41005 24.1541 8.35826 25.1677 9.41971C27.1219 11.4657 28.1661 12.1509 29.6733 12.3759L30.6028 12.5145L28.9217 10.7966L27.2407 9.07893L30.5386 8.98997C33.6406 8.90618 33.893 8.86729 34.7884 8.33291C35.312 8.02049 37.4732 6.01792 39.5914 3.88299L43.4422 0.000973611H33.5355C22.247 0.000973611 22.9465 -0.105815 20.978 1.91738C20.3936 2.51794 19.7629 3.00913 19.5765 3.00913C19.3898 3.00913 18.8564 2.61011 18.391 2.12236C17.9256 1.63461 17.1165 0.957778 16.5931 0.618286L15.6413 0.000973611H7.82067H0L2.02934 2.04802ZM113.782 4.31402C112.671 4.66339 111.725 4.98699 111.679 5.03318C111.633 5.07917 111.916 5.18531 112.307 5.26868C113.562 5.53662 113.767 5.88556 113.767 7.75406V9.42401L112.627 9.30605C110.104 9.04455 107.523 10.5688 106.473 12.9405C105.758 14.557 105.756 17.4568 106.47 19.0688C107.674 21.7901 110.684 22.8984 113.056 21.494C113.763 21.0752 113.767 21.0752 113.767 21.4951C113.767 21.8778 113.919 21.9175 115.384 21.9175H117L116.419 21.1534L115.839 20.3894L115.98 12.0215C116.057 7.41929 116.049 3.65932 115.961 3.66619C115.873 3.67307 114.892 3.96443 113.782 4.31402ZM49.436 4.24139C47.9519 4.7762 47.0766 5.45089 46.4299 6.55832C45.7693 7.69003 45.5332 9.49578 45.9001 10.6114C46.444 12.2659 47.4114 12.9955 50.6496 14.1939C53.6863 15.3178 54.866 16.5308 54.5558 18.2106C54.3538 19.306 53.1105 20.5426 52.001 20.7514C50.957 20.948 49.1188 20.5808 48.1557 19.9835C47.7599 19.7379 47.1646 19.1165 46.8328 18.6023C46.501 18.0881 46.1125 17.4878 45.9695 17.2678C45.7571 16.9416 45.7177 17.2428 45.7554 18.9094L45.8014 20.9506L46.8709 21.4824C47.7314 21.9102 48.3497 22.0305 50.0373 22.0986C51.2997 22.1493 52.5053 22.0789 53.0659 21.9214C56.8335 20.8625 57.9137 15.3318 54.7468 13.3159C54.226 12.9844 52.778 12.2942 51.5292 11.7824C48.0318 10.349 47.1723 9.27575 47.9712 7.34065C48.5239 6.00181 49.4746 5.37267 50.9446 5.37267C52.4434 5.37267 53.4414 5.82841 54.8307 7.14727L55.9899 8.24761L55.9263 6.64899L55.8625 5.05037L54.8517 4.54694C53.4511 3.84948 50.9202 3.7068 49.436 4.24139ZM58.7961 5.86472L58.1121 6.57293L58.7389 7.31572L59.3659 8.05852L60.1335 7.29875L60.9012 6.53919L60.1905 5.84775L59.4798 5.15651L58.7961 5.86472ZM58.8594 9.90531L57.1469 10.7229L57.8439 10.97C58.2654 11.1193 58.5878 11.4049 58.6597 11.6924C58.7252 11.9539 58.7485 14.0639 58.7119 16.3812C58.6483 20.4085 58.6242 20.6176 58.1637 21.1087C57.8987 21.3915 57.6821 21.6891 57.6821 21.7701C57.6821 21.8513 58.5972 21.9175 59.7157 21.9175C60.8342 21.9175 61.7493 21.8359 61.7493 21.7359C61.7493 21.636 61.5566 21.3793 61.3212 21.1655C60.9134 20.795 60.893 20.5037 60.893 15.0211C60.893 11.8557 60.8209 9.22569 60.7325 9.1767C60.6441 9.12771 59.8013 9.45559 58.8594 9.90531ZM64.4529 9.85181L62.7685 10.6447L63.4896 10.9631L64.211 11.2815L64.2686 15.8114C64.3262 20.3279 64.3247 20.3436 63.7936 21.1294L63.2606 21.9175H65.4139H67.5672L67.0129 21.2564L66.4587 20.5954V16.3204V12.0456L67.5826 11.7276C69.6922 11.1307 70.2909 11.0884 70.7486 11.5041C71.1391 11.8589 71.1682 12.1879 71.1682 16.2403V20.5954L70.614 21.2564L70.0597 21.9175H72.2272H74.3946L73.8517 21.1156C73.3172 20.326 73.3088 20.2501 73.3088 16.1908V12.0682L74.3256 11.7433C76.1591 11.1578 77.14 11.0875 77.6034 11.5087C77.9879 11.8576 78.0183 12.205 78.0183 16.2403V20.5954L77.4641 21.2564L76.9098 21.9175H79.0631H81.2164L80.6877 21.1354C80.1688 20.3681 80.1589 20.2723 80.1576 16.0323C80.1566 11.5327 80.0063 10.4167 79.3181 9.79143C78.3439 8.90661 76.0356 9.23858 74.1246 10.5385C73.0631 11.2605 72.8807 11.3041 72.8807 10.8353C72.8807 10.649 72.5861 10.2008 72.2263 9.83956C71.6188 9.22977 71.4903 9.19109 70.4361 9.30046C69.373 9.41047 67.8726 10.0512 66.7002 10.8956L66.1926 11.2613L66.3457 10.1434C66.43 9.52844 66.4176 9.03295 66.3183 9.04219C66.219 9.05143 65.3796 9.41585 64.4529 9.85181ZM95.3862 9.87674L93.5954 10.6945L94.3694 10.9511L95.1435 11.2074V15.9014V20.5954L94.5893 21.2564L94.0351 21.9175H96.2025H98.3699L97.827 21.1156C97.2927 20.3262 97.2841 20.2493 97.2841 16.2031V12.0925L98.408 11.7536C100.248 11.199 101.192 11.1167 101.672 11.4691C102.072 11.762 102.105 12.0716 102.165 16.0447L102.229 20.306L101.674 21.058L101.118 21.8101L103.082 21.8722C104.162 21.9063 105.097 21.8818 105.161 21.8176C105.225 21.7536 105.077 21.4837 104.831 21.2183C104.412 20.7647 104.381 20.4461 104.308 15.9012C104.225 10.6266 104.096 10.0153 102.963 9.49707C101.723 8.93024 99.4648 9.47751 97.9278 10.7173L97.1452 11.3486L97.2411 10.187C97.294 9.5482 97.3011 9.03295 97.2572 9.04219C97.2131 9.05143 96.3712 9.42702 95.3862 9.87674ZM85.8237 9.56926C84.4738 10.0705 83.4538 11.0574 82.7027 12.589C81.0563 15.9459 82.3184 20.1859 85.3915 21.6223C87.3579 22.5413 89.3967 22.2106 91.069 20.7016C92.5394 19.3745 93.0919 17.9994 93.084 15.6863C93.0769 13.6154 92.6657 12.4272 91.4922 11.0856C90.1269 9.52478 87.6949 8.87416 85.8237 9.56926ZM88.7166 11.3393C89.6709 12.0306 90.4951 14.0106 90.6012 15.8679C90.725 18.0318 90.4161 19.1219 89.4335 19.9878C88.7695 20.5731 88.5319 20.6592 87.8411 20.5664C86.6659 20.4081 85.8289 19.7089 85.1888 18.3509C83.8571 15.5258 84.4704 11.6404 86.3668 10.8862C86.8896 10.6784 88.1358 10.9186 88.7166 11.3393ZM113.136 11.2871L113.767 11.6148V15.5795V19.5441L113.188 19.925C112.815 20.1702 112.199 20.306 111.459 20.306C110.409 20.306 110.247 20.2377 109.592 19.5204C108.73 18.5759 108.418 17.5563 108.417 15.6709C108.414 12.8073 109.639 10.9592 111.537 10.9592C112.069 10.9592 112.788 11.1069 113.136 11.2871ZM20.6894 12.5475C19.548 13.7592 19.2655 14.6416 19.8362 15.2145C20.0369 15.416 20.2739 15.2966 20.9108 14.6724L21.7278 13.8716L27.7722 19.9358L33.8165 26H34.9389C35.5563 26 36.0615 25.9452 36.0615 25.8784C36.0615 25.8116 32.8528 22.5196 28.9309 18.5628L21.8004 11.3686L20.6894 12.5475Z" fill="#DD4543"/>
</svg>
